<svg xmlns="http://www.w3.org/2000/svg" width="284.382" height="99.6" viewBox="0 0 284.382 99.6">
    <g id="アートワーク_1" data-name="アートワーク 1" transform="translate(142.191 49.8)">
        <g id="Group_7" data-name="Group 7" transform="translate(-142.191 -49.8)">
            <g id="Group_6" data-name="Group 6">
                <g id="Group_3" data-name="Group 3">
                    <g id="Group_1" data-name="Group 1">
                        <path id="Path_1" data-name="Path 1" d="M75.376,40.772l15.182,0L79.212,26.117H76.629c.1-3.477.356-17.247.356-17.247L60.8,8.964s.088,16.618.1,17.149l-12.711,0c1.724-6.8,5.022-20.119,6.371-26.1H15.742L27.1,14.671h8.023c-.981,5.1-1.163,5.812-2.326,10.458-7.058,0-12.419,1.342-17.07,4.111C8.309,33.708,0,42.288,0,50.957c0,11.081,10.99,19.57,20.823,19.57,6.7,0,11.614-3.217,15.28-9.917a89.854,89.854,0,0,0,7.984-19.844l15.059,0c-1.868,5.6-6.556,9.068-15.56,11.645l-1.8.513,8.7,13.749,1.045-.352C65.456,61.631,71.64,55.85,74.364,44.954,74.371,44.928,74.874,43.248,75.376,40.772Zm-47.048-.539a106.937,106.937,0,0,1-4.38,11.616,6.233,6.233,0,0,1-4.6,3.788,4.7,4.7,0,0,1-4.777-2.261,5.91,5.91,0,0,1-.356-2.6c0-5.633,8.128-10.546,14.294-11.26ZM48.193,26.109" transform="translate(0 -0.001)" fill="#0058a6"/>
                        <path id="Path_2" data-name="Path 2" d="M5.125,0H5.041L5.007,14.661l11.471.006Z" transform="translate(-0.777)" fill="#0058a6"/>
                        <path id="Path_3" data-name="Path 3" d="M152.488,63.658c-4.435-5.028-10.659-7.5-18.921-7.5a35.37,35.37,0,0,0-4.857.341l21.132-17.807V31.024L121.576,31l-17.08-.083,11.473,14.825,6.34-.013L85.347,72.175,94.12,84.618c9.206-8.095,12.525-10.649,16.957-12.951a34.64,34.64,0,0,1,17.46-4.175c4.346,0,7.243.682,9.715,2.3a11.578,11.578,0,0,1,4.857,9.8c0,4.6-2.127,8.093-5.879,9.714-1.619-9.372-8.429-14.829-18.485-14.829a18.577,18.577,0,0,0-13.464,5.114c-2.813,2.726-3.919,5.025-3.919,8.52A14.785,14.785,0,0,0,105.193,98c3.669,3.917,10.484,5.876,20.11,5.876a55.4,55.4,0,0,0,12.608-1.275c12.781-2.984,20.2-11.5,20.2-23.261A23.875,23.875,0,0,0,152.488,63.658ZM121.814,92.033c-4.432,0-7.421-1.536-7.421-3.921,0-1.7,1.705-3.069,3.838-3.069a5.931,5.931,0,0,1,6.049,4.686,8.355,8.355,0,0,1,.169,2.129S122.748,92.033,121.814,92.033Z" transform="translate(-13.252 -4.802)" fill="#0058a6"/>
                    </g>
                    <path id="Path_4" data-name="Path 4" d="M237.483,30.622H198.035l-.017,1.293c-.128,12.252-3.3,15.382-8.02,16.311l-1.061.2V60.8l1.477-.189c10.992-1.389,16.969-7.02,18.713-17.676h16.835V54.808c-.261,10.534-3.366,13.575-13.841,13.575H191.048V80.3h24.572c8.821-.183,14.386-2.644,18.6-8.238,3.21-4.286,4.455-9.024,4.566-17.5V30.622Z" transform="translate(-29.339 -4.755)" fill="#302d2c"/>
                    <path id="Path_5" data-name="Path 5" d="M262.6,30.628V57.454c-.355,8.537-2.255,10.467-6.665,11.779l-.933.28V82.751l1.478-.194c12.086-1.573,18.607-10.8,18.363-25.959V30.628Z" transform="translate(-39.597 -4.756)" fill="#302d2c"/>
                    <g id="Group_2" data-name="Group 2" transform="translate(159.681 82.446)">
                        <path id="Path_6" data-name="Path 6" d="M196.162,112.248a9.931,9.931,0,0,0,3.86-4.918,14.155,14.155,0,0,0-3.86-1.1c-.383,1.114-.855,2.449-1.327,3.471-.805,1.719-1.833,2.272-3.149,2.272a2.7,2.7,0,0,1-2.649-2.966c0-2.266,1.883-4.6,5.671-4.81.383-1.208.705-2.447,1.005-3.8-1.244.2-2.472.344-4.094.455a7.575,7.575,0,0,1-.172-1.552c0-.222.022-.425.039-.605,1.811-.092,3.644-.272,5.371-.514a5.5,5.5,0,0,1,1.305,1.172c-.5,2.047-.955,3.694-1.355,4.954a15.8,15.8,0,0,1,3.749,1.005,21.331,21.331,0,0,0,.267-3.18,1.582,1.582,0,0,1,.3-.019,4.51,4.51,0,0,1,1.772.367,20.387,20.387,0,0,1-.4,3.749,18.493,18.493,0,0,1,2.744,1.83,4.613,4.613,0,0,1-1.083,2.027,18.25,18.25,0,0,0-2.266-1.772,11.5,11.5,0,0,1-4.094,5.374Zm-5.1-3.366c0,.639.35.972.733.972.455,0,.805-.186,1.166-.953a21.445,21.445,0,0,0,1.067-2.636A2.848,2.848,0,0,0,191.063,108.882Z" transform="translate(-189.036 -97.692)" fill="#302d2c"/>
                        <path id="Path_7" data-name="Path 7" d="M223.107,104.19a6.81,6.81,0,0,1,2.349-.4c2.994,0,4.949,1.791,4.949,4.388,0,2.98-2.338,5.246-6.465,5.246-2.655,0-4.082-1.3-4.082-3.019a2.553,2.553,0,0,1,2.672-2.447,3.872,3.872,0,0,1,3.855,3.072,3.01,3.01,0,0,0,1.905-2.872c0-1.369-1.166-2.486-3.161-2.486a8.305,8.305,0,0,0-5.082,1.7c-.644.472-1.411,1.041-2.127,1.608a6.582,6.582,0,0,1-1.277-1.666,62.022,62.022,0,0,0,7.365-6.635l-.017-.053c-1.589.142-3.033.233-4.9.306a7.414,7.414,0,0,1-.128-1.369c0-.239.022-.475.039-.694,2.322-.056,4.988-.2,7.86-.383a4.479,4.479,0,0,1,.678,1.536l-4.466,4.113Zm-.539,5.468a.78.78,0,0,0-.861.786c0,.622.733,1.133,2.066,1.133a3.529,3.529,0,0,0,.694-.056C224.157,110.3,223.4,109.658,222.568,109.658Z" transform="translate(-193.322 -97.739)" fill="#302d2c"/>
                        <path id="Path_8" data-name="Path 8" d="M247.732,106.6a1.908,1.908,0,0,1-3.816,0,1.908,1.908,0,1,1,3.816,0Z" transform="translate(-197.558 -98.7)" fill="#302d2c"/>
                        <path id="Path_9" data-name="Path 9" d="M272.26,100.38l1.222,1.352a18.393,18.393,0,0,1-10.353,11.553l-1.466-1.808a15.928,15.928,0,0,0,9.109-9.178h-4.954a19.288,19.288,0,0,1-3.91,4.041l-1.622-1.425a18.723,18.723,0,0,0,5.688-7.312l2.188.636c-.322.733-.7,1.447-1.089,2.141Z" transform="translate(-200.098 -97.603)" fill="#302d2c"/>
                        <path id="Path_10" data-name="Path 10" d="M289.793,99.128v4.185c0,4.243-1.2,7.168-4.033,9.509l-1.7-1.536c2.588-1.977,3.488-4.4,3.488-8.1V99.128Zm4.954-.511v11.245a13.806,13.806,0,0,0,4.888-4.007l1.233,1.922a17.526,17.526,0,0,1-7.2,5.046l-1.177-1.022V98.617Z" transform="translate(-203.788 -97.76)" fill="#302d2c"/>
                    </g>
                    <path id="Path_11" data-name="Path 11" d="M305.074,43.915v.076l12.142,15.995V43.915Z" transform="translate(-47.373 -6.82)" fill="#0058a6"/>
                    <path id="Path_12" data-name="Path 12" d="M301.626,52.565v3.848c-.033,2.378-.089,4.251-.256,5.736-.489,4.754-1.933,5.472-6.165,5.76V30.628h-12.42V80.809h9.887c7.82-.054,12.175-1.409,16.085-5.007a13.307,13.307,0,0,0,3.377-5.039,19.142,19.142,0,0,0,.889-3.167Z" transform="translate(-43.907 -4.756)" fill="#302d2c"/>
                </g>
                <g id="Group_5" data-name="Group 5" transform="translate(265.753 80.971)">
                    <path id="Path_13" data-name="Path 13" d="M323.917,114.486a9.315,9.315,0,1,1,9.32-9.317A9.322,9.322,0,0,1,323.917,114.486Zm0-16.849a7.532,7.532,0,1,0,7.543,7.532A7.547,7.547,0,0,0,323.917,97.637Z" transform="translate(-314.607 -95.856)" fill="#302d2c"/>
                    <g id="Group_4" data-name="Group 4" transform="translate(5.06 3.77)">
                        <path id="Path_14" data-name="Path 14" d="M320.6,100.548a26.135,26.135,0,0,1,3.4-.228,5.535,5.535,0,0,1,3.7.969,2.6,2.6,0,0,1,.944,2.108,2.772,2.772,0,0,1-2.41,2.78v.061a2.584,2.584,0,0,1,1.8,1.95,18.785,18.785,0,0,0,1.078,3.224H327.34a9.585,9.585,0,0,1-.878-2.694,2.193,2.193,0,0,0-2.355-1.983h-1.855v4.677H320.6Zm1.655,4.932h2.011c1.733,0,2.688-.783,2.688-1.925,0-1.327-1.033-1.963-2.844-1.963a10.275,10.275,0,0,0-1.855.122Z" transform="translate(-320.598 -100.32)" fill="#302d2c"/>
                    </g>
                </g>
            </g>
        </g>
    </g>
</svg>
