<svg id="Group_9" data-name="Group 9" xmlns="http://www.w3.org/2000/svg" width="19.998" height="20" viewBox="0 0 19.998 20">
    <path id="Path_19" data-name="Path 19" d="M1808.763,473.279a9.953,9.953,0,0,0-8.7-4.737.536.536,0,1,0,.053,1.071,8.916,8.916,0,0,1,7.551,13.885,10.179,10.179,0,0,1-1.822,2,9.7,9.7,0,0,1-2.547,1.382,8.5,8.5,0,0,1-4.948.326,9.185,9.185,0,0,1-4.232-2.194,8.861,8.861,0,0,1-2.591-4.667,9,9,0,0,1,3.921-9.354c.185-.114.374-.218.566-.314l-.489,1.181a.388.388,0,0,0,.717.3l.963-2.329a.388.388,0,0,0-.236-.517l-2.393-.792a.388.388,0,1,0-.244.737l1.284.425a8.135,8.135,0,0,0-.732.4,10.1,10.1,0,0,0-4.405,10.5,9.926,9.926,0,0,0,2.912,5.225,10.332,10.332,0,0,0,6.944,2.7,9.063,9.063,0,0,0,3.36-.623,10.811,10.811,0,0,0,2.824-1.544,11.208,11.208,0,0,0,2.018-2.206A9.934,9.934,0,0,0,1808.763,473.279Z" transform="translate(-1790.264 -468.496)" fill="#929292"/>
    <path id="Path_20" data-name="Path 20" d="M1824.5,505.388a.489.489,0,0,0,.022.691l2.68,2.51a.489.489,0,0,0,.638.026l4.934-3.916a.489.489,0,1,0-.607-.766l-4.6,3.653-2.373-2.222A.488.488,0,0,0,1824.5,505.388Z" transform="translate(-1818.669 -495.937)" fill="#929292"/>
</svg>
